<svg width="100" height="40" xmlns="http://www.w3.org/2000/svg">
  <text x="10" y="30" font-family="Arial" font-size="24" fill="black">Ojaa</text>
</svg>
<svg width="50" height="24" viewBox="0 0 50 24" fill="none" xmlns="http://www.w3.org/2000/svg">
<path d="M16.0795 10.2727C16.0795 12.1364 15.7386 13.7386 15.0568 15.0795C14.375 16.4148 13.4403 17.4432 12.2528 18.1648C11.071 18.8807 9.72727 19.2386 8.22159 19.2386C6.71023 19.2386 5.3608 18.8807 4.1733 18.1648C2.99148 17.4432 2.05966 16.4119 1.37784 15.071C0.696023 13.7301 0.355114 12.1307 0.355114 10.2727C0.355114 8.40909 0.696023 6.80966 1.37784 5.47443C2.05966 4.13352 2.99148 3.10511 4.1733 2.3892C5.3608 1.66761 6.71023 1.30682 8.22159 1.30682C9.72727 1.30682 11.071 1.66761 12.2528 2.3892C13.4403 3.10511 14.375 4.13352 15.0568 5.47443C15.7386 6.80966 16.0795 8.40909 16.0795 10.2727ZM13.4716 10.2727C13.4716 8.85227 13.2415 7.65625 12.7812 6.68466C12.3267 5.70739 11.7017 4.96875 10.9062 4.46875C10.1165 3.96307 9.22159 3.71023 8.22159 3.71023C7.21591 3.71023 6.31818 3.96307 5.52841 4.46875C4.73864 4.96875 4.11364 5.70739 3.65341 6.68466C3.19886 7.65625 2.97159 8.85227 2.97159 10.2727C2.97159 11.6932 3.19886 12.892 3.65341 13.8693C4.11364 14.8409 4.73864 15.5795 5.52841 16.0852C6.31818 16.5852 7.21591 16.8352 8.22159 16.8352C9.22159 16.8352 10.1165 16.5852 10.9062 16.0852C11.7017 15.5795 12.3267 14.8409 12.7812 13.8693C13.2415 12.892 13.4716 11.6932 13.4716 10.2727ZM19.1584 5.90909H21.7067V19.8523C21.7067 20.7273 21.5476 21.4659 21.2294 22.0682C20.9169 22.6705 20.451 23.1278 19.8317 23.4403C19.218 23.7528 18.4595 23.9091 17.5561 23.9091C17.4652 23.9091 17.38 23.9091 17.3004 23.9091C17.2152 23.9091 17.1271 23.9063 17.0362 23.9006V21.7102C17.1158 21.7102 17.1868 21.7102 17.2493 21.7102C17.3061 21.7102 17.3714 21.7102 17.4453 21.7102C18.0476 21.7102 18.4822 21.5483 18.7493 21.2244C19.022 20.9063 19.1584 20.4432 19.1584 19.8352V5.90909ZM20.4197 3.8892C19.9766 3.8892 19.5959 3.74148 19.2777 3.44602C18.9652 3.14489 18.8089 2.78693 18.8089 2.37216C18.8089 1.9517 18.9652 1.59375 19.2777 1.29829C19.5959 0.997159 19.9766 0.846591 20.4197 0.846591C20.8629 0.846591 21.2408 0.997159 21.5533 1.29829C21.8714 1.59375 22.0305 1.9517 22.0305 2.37216C22.0305 2.78693 21.8714 3.14489 21.5533 3.44602C21.2408 3.74148 20.8629 3.8892 20.4197 3.8892ZM28.9446 19.2898C28.1151 19.2898 27.3651 19.1364 26.6946 18.8295C26.0241 18.517 25.4929 18.0653 25.1009 17.4744C24.7145 16.8835 24.5213 16.1591 24.5213 15.3011C24.5213 14.5625 24.6634 13.9545 24.9474 13.4773C25.2315 13 25.6151 12.6222 26.098 12.3438C26.581 12.0653 27.1207 11.8551 27.7173 11.7131C28.3139 11.571 28.9219 11.4631 29.5412 11.3892C30.3253 11.2983 30.9616 11.2244 31.4503 11.1676C31.9389 11.1051 32.294 11.0057 32.5156 10.8693C32.7372 10.733 32.848 10.5114 32.848 10.2045V10.1449C32.848 9.40057 32.6378 8.82386 32.2173 8.41477C31.8026 8.00568 31.1832 7.80114 30.3594 7.80114C29.5014 7.80114 28.8253 7.99148 28.331 8.37216C27.8423 8.74716 27.5043 9.16477 27.3168 9.625L24.9219 9.07955C25.206 8.28409 25.6207 7.64205 26.1662 7.15341C26.7173 6.65909 27.3509 6.30114 28.0668 6.07954C28.7827 5.85227 29.5355 5.73864 30.3253 5.73864C30.848 5.73864 31.402 5.80114 31.9872 5.92614C32.5781 6.04545 33.1293 6.26705 33.6406 6.59091C34.1577 6.91477 34.581 7.37784 34.9105 7.98011C35.2401 8.5767 35.4048 9.35227 35.4048 10.3068V19H32.9162V17.2102H32.8139C32.6491 17.5398 32.402 17.8636 32.0724 18.1818C31.7429 18.5 31.3196 18.7642 30.8026 18.9744C30.2855 19.1847 29.6662 19.2898 28.9446 19.2898ZM29.4986 17.2443C30.2031 17.2443 30.8054 17.1051 31.3054 16.8267C31.8111 16.5483 32.1946 16.1847 32.456 15.7358C32.723 15.2812 32.8565 14.7955 32.8565 14.2784V12.5909C32.7656 12.6818 32.5895 12.767 32.3281 12.8466C32.0724 12.9205 31.7798 12.9858 31.4503 13.0426C31.1207 13.0937 30.7997 13.142 30.4872 13.1875C30.1747 13.2273 29.9134 13.2614 29.7031 13.2898C29.2088 13.3523 28.7571 13.4574 28.348 13.6051C27.9446 13.7528 27.6207 13.9659 27.3764 14.2443C27.1378 14.517 27.0185 14.8807 27.0185 15.3352C27.0185 15.9659 27.2514 16.4432 27.7173 16.767C28.1832 17.0852 28.777 17.2443 29.4986 17.2443ZM42.6087 19.2898C41.7791 19.2898 41.0291 19.1364 40.3587 18.8295C39.6882 18.517 39.157 18.0653 38.7649 17.4744C38.3786 16.8835 38.1854 16.1591 38.1854 15.3011C38.1854 14.5625 38.3274 13.9545 38.6115 13.4773C38.8956 13 39.2791 12.6222 39.7621 12.3438C40.245 12.0653 40.7848 11.8551 41.3814 11.7131C41.978 11.571 42.5859 11.4631 43.2053 11.3892C43.9893 11.2983 44.6257 11.2244 45.1143 11.1676C45.603 11.1051 45.9581 11.0057 46.1797 10.8693C46.4013 10.733 46.5121 10.5114 46.5121 10.2045V10.1449C46.5121 9.40057 46.3018 8.82386 45.8814 8.41477C45.4666 8.00568 44.8473 7.80114 44.0234 7.80114C43.1655 7.80114 42.4893 7.99148 41.995 8.37216C41.5064 8.74716 41.1683 9.16477 40.9808 9.625L38.5859 9.07955C38.87 8.28409 39.2848 7.64205 39.8303 7.15341C40.3814 6.65909 41.0149 6.30114 41.7308 6.07954C42.4467 5.85227 43.1996 5.73864 43.9893 5.73864C44.5121 5.73864 45.0661 5.80114 45.6513 5.92614C46.2422 6.04545 46.7933 6.26705 47.3047 6.59091C47.8217 6.91477 48.245 7.37784 48.5746 7.98011C48.9041 8.5767 49.0689 9.35227 49.0689 10.3068V19H46.5803V17.2102H46.478C46.3132 17.5398 46.0661 17.8636 45.7365 18.1818C45.407 18.5 44.9837 18.7642 44.4666 18.9744C43.9496 19.1847 43.3303 19.2898 42.6087 19.2898ZM43.1626 17.2443C43.8672 17.2443 44.4695 17.1051 44.9695 16.8267C45.4751 16.5483 45.8587 16.1847 46.12 15.7358C46.3871 15.2812 46.5206 14.7955 46.5206 14.2784V12.5909C46.4297 12.6818 46.2536 12.767 45.9922 12.8466C45.7365 12.9205 45.4439 12.9858 45.1143 13.0426C44.7848 13.0937 44.4638 13.142 44.1513 13.1875C43.8388 13.2273 43.5774 13.2614 43.3672 13.2898C42.8729 13.3523 42.4212 13.4574 42.0121 13.6051C41.6087 13.7528 41.2848 13.9659 41.0405 14.2443C40.8018 14.517 40.6825 14.8807 40.6825 15.3352C40.6825 15.9659 40.9155 16.4432 41.3814 16.767C41.8473 17.0852 42.4411 17.2443 43.1626 17.2443Z" fill="black"/>
</svg>
